<svg version="1.0" xmlns="http://www.w3.org/2000/svg"
 width="512.000000pt" height="512.000000pt" viewBox="0 0 512.000000 512.000000"
 preserveAspectRatio="xMidYMid meet">
<metadata>
Created by potrace 1.16, written by Peter Selinger 2001-2019
</metadata>
<g transform="translate(0.000000,512.000000) scale(0.100000,-0.100000)"
fill="#000000" stroke="none">
<path d="M0 2560 l0 -2560 2560 0 2560 0 0 2560 0 2560 -2560 0 -2560 0 0
-2560z m5000 -25 l0 -2405 -2415 0 -2415 0 0 2398 c0 1319 3 2402 7 2405 3 4
1090 7 2415 7 l2408 0 0 -2405z"/>
<path d="M350 2535 l0 -2235 1783 0 1784 0 47 52 c26 29 100 107 164 173 134
138 574 594 650 674 l51 53 -2 1757 -2 1756 -2237 3 -2238 2 0 -2235z m4066
876 c57 -35 84 -81 83 -142 -1 -99 -60 -159 -157 -159 -96 0 -162 66 -162 160
0 119 138 201 236 141z m-3252 -3 c22 -6 53 -20 68 -30 14 -10 31 -18 36 -18
10 0 43 -37 69 -76 13 -19 13 -19 25 0 100 153 272 183 399 68 63 -56 74 -84
83 -202 4 -52 12 -107 19 -122 12 -29 45 -48 82 -48 14 0 25 -4 25 -10 0 -12
-58 -28 -132 -35 -32 -4 -58 -11 -58 -17 0 -6 29 -42 65 -80 39 -41 68 -81 72
-99 3 -16 10 -32 14 -35 17 -10 10 -137 -10 -192 -45 -122 -163 -250 -287
-311 -38 -18 -77 -37 -86 -42 -34 -17 -185 -29 -252 -20 -89 13 -135 38 -246
136 -111 98 -132 112 -187 121 -47 7 -73 -13 -93 -73 -12 -39 -32 -55 -43 -35
-7 10 15 90 37 134 36 75 128 136 230 154 43 8 51 13 59 39 24 81 40 410 23
495 -32 161 -94 231 -191 213 -44 -8 -85 -50 -85 -87 0 -38 1 -39 78 -105 88
-75 116 -127 116 -212 0 -51 -6 -78 -24 -116 -29 -56 -92 -123 -140 -146 -36
-19 -110 -23 -110 -7 0 6 6 10 14 10 27 0 94 43 105 67 17 36 1 62 -71 116
-21 15 -51 47 -68 72 -27 40 -30 51 -30 124 0 44 5 93 11 108 59 146 137 223
264 259 54 15 169 17 219 2z m2216 -18 c12 -7 16 -43 20 -182 l5 -173 72 -5
c40 -3 76 -9 81 -15 5 -5 7 -45 4 -87 l-4 -77 -82 -3 -81 -3 -3 -204 c-2 -142
1 -208 9 -217 16 -20 52 -17 94 6 39 22 60 18 77 -13 10 -19 4 -28 -53 -80
-101 -93 -233 -197 -249 -197 -8 0 -44 30 -80 67 -64 67 -85 81 -145 99 -26 8
-30 14 -30 44 0 30 4 36 25 38 49 7 50 10 50 243 l0 218 -47 3 c-46 3 -48 5
-51 34 -3 28 2 35 48 63 27 17 53 31 56 31 9 0 63 60 94 105 38 55 69 126 92
210 27 96 54 123 98 95z m620 -9 c6 -11 10 -90 10 -185 l0 -166 58 0 c103 0
103 0 100 -94 l-3 -81 -82 -3 -83 -3 0 -207 c0 -149 3 -211 12 -220 18 -18 56
-14 99 10 37 21 39 21 59 3 11 -10 20 -23 20 -30 0 -11 -96 -106 -146 -146
-98 -77 -157 -119 -166 -119 -5 0 -40 31 -77 68 -45 45 -81 72 -109 81 -54 18
-76 43 -68 76 5 18 13 25 29 25 45 0 47 11 47 242 l0 218 -37 0 c-50 0 -65 11
-61 45 2 20 14 33 48 52 60 33 140 112 167 165 46 91 73 152 73 169 0 10 5 21
10 24 6 3 10 21 10 39 0 17 5 37 12 44 19 19 66 15 78 -7z m-1670 -291 c38
-20 79 -96 96 -176 13 -64 15 -126 12 -321 -3 -218 -1 -244 14 -259 16 -17 19
-16 54 2 64 34 64 33 64 297 0 209 -2 243 -17 269 -18 29 -18 30 6 46 36 25
110 104 117 124 9 28 22 22 83 -40 51 -52 74 -67 134 -86 29 -9 19 -30 -26
-51 l-42 -20 -3 -254 c-2 -179 1 -258 9 -267 14 -17 53 -18 80 -4 15 9 21 7
26 -6 5 -13 -7 -30 -43 -61 -121 -108 -167 -143 -187 -143 -31 0 -122 89 -137
134 -6 20 -14 36 -18 36 -4 0 -63 -39 -132 -86 l-126 -85 -60 59 c-32 33 -78
72 -102 87 -48 32 -49 46 -5 57 48 13 53 37 53 271 0 194 -2 215 -20 245 -20
32 -43 41 -55 22 -10 -16 -35 -12 -42 7 -4 10 2 23 19 37 14 12 45 37 68 56
24 19 65 54 92 78 52 45 59 48 88 32z m491 -1189 c22 -17 22 -21 10 -45 -13
-23 -12 -28 2 -44 43 -47 1 -92 -85 -92 -53 0 -72 10 -48 25 14 9 13 148 -2
163 -22 22 96 15 123 -7z m347 5 c-19 -14 -25 -76 -9 -76 6 0 18 14 28 30 9
17 21 30 26 30 5 0 4 7 -3 15 -11 13 -8 15 21 15 l33 0 -37 -37 -36 -38 35
-52 c19 -29 43 -53 52 -53 11 0 13 -3 5 -11 -15 -15 -79 -7 -75 9 3 17 -28 70
-45 76 -9 4 -13 -5 -13 -30 0 -22 6 -37 15 -40 8 -4 15 -10 15 -15 0 -12 -77
-11 -85 1 -3 6 -1 10 5 10 9 0 11 26 8 90 l-3 90 40 0 c35 -1 38 -2 23 -14z
m450 2 c17 -17 15 -67 -3 -74 -13 -5 -13 -8 0 -27 8 -12 15 -30 15 -40 0 -14
5 -17 21 -12 18 6 19 5 7 -14 -22 -36 -41 -24 -67 42 -6 15 -17 27 -26 27 -20
0 -21 -59 0 -66 24 -10 6 -24 -30 -24 -34 0 -54 14 -35 25 14 9 13 148 -2 163
-9 9 1 12 48 12 33 0 65 -5 72 -12z m-1123 -27 c6 -21 -3 -51 -16 -51 -5 0 -9
14 -9 30 0 20 -5 30 -15 30 -30 0 -15 -45 30 -92 31 -33 53 -48 71 -48 16 0
24 -5 22 -12 -7 -19 -37 -22 -65 -7 -18 10 -26 10 -35 1 -16 -16 -61 -15 -76
0 -17 17 -15 63 2 78 12 9 12 17 4 35 -15 33 4 55 48 55 23 0 34 -5 39 -19z"/>
<path d="M4295 3396 c-142 -63 -102 -267 52 -266 21 0 47 7 57 15 18 13 18 16
4 28 -8 6 -25 27 -37 45 -17 24 -30 32 -52 32 -27 0 -29 -2 -29 -40 0 -22 -4
-40 -10 -40 -6 0 -10 38 -10 95 l0 95 69 0 c63 0 69 -2 75 -22 9 -35 7 -45
-10 -62 -13 -14 -14 -20 -2 -46 7 -17 16 -30 20 -30 3 0 8 -8 10 -17 6 -28 48
46 48 85 0 45 -37 98 -86 122 -47 23 -58 24 -99 6z"/>
<path d="M1441 3294 c-19 -24 -21 -40 -21 -154 0 -70 -3 -155 -6 -189 -7 -61
-7 -61 19 -61 14 0 36 4 49 9 13 5 39 13 58 18 19 6 54 16 78 23 l42 13 -30
15 c-48 23 -80 88 -86 174 -5 75 -20 143 -37 166 -15 20 -44 14 -66 -14z"/>
<path d="M1348 2733 c-26 -26 -78 -68 -115 -93 -37 -25 -68 -50 -70 -55 -2 -6
11 -16 27 -24 50 -22 150 -101 230 -181 92 -92 106 -100 174 -100 44 0 58 4
80 26 30 31 56 79 56 105 0 10 -5 31 -11 46 -58 145 -120 219 -236 281 -44 23
-82 42 -84 42 -2 0 -26 -21 -51 -47z"/>
</g>
</svg>
